name rise45.9887peak57.8056fall74.9286.mot
datacolumns 19
datarows 14
range 2.60666200000000 2.62832700000000
endheader
time	ground_force1_vx	ground_force1_vy	ground_force1_vz	ground_force1_px	ground_force1_py	ground_force1_pz	ground_force2_vx	ground_force2_vy	ground_force2_vz	ground_force2_px	ground_force2_py	ground_force2_pz	ground_torque1_x	ground_torque1_y	ground_torque1_z	ground_torque2_x	ground_torque2_y	ground_torque2_z	
2.60666200000000	-38.06166500000000	794.10263899999995	56.38961400000000	0.14042100000000	0.00000000000000	0.10262200000000	-7.16995500000000	68.78861600000000	7.04165700000000	0.36806500000000	0.00000000000000	-0.06801400000000	0.00000000000000	24.36147400000000	0.00000000000000	0.00000000000000	4.39614200000000	0.00000000000000	
2.60833800000000	-38.56337300000000	792.39134200000001	56.30332200000000	0.13962800000000	0.00000000000000	0.10254800000000	-7.35845200000000	74.24539400000000	7.37278400000000	0.37165000000000	0.00000000000000	-0.06816700000000	0.00000000000000	24.27657000000000	0.00000000000000	0.00000000000000	4.65486900000000	0.00000000000000	
2.60998800000000	-39.06941500000000	790.55010200000004	56.19490400000000	0.13885500000000	0.00000000000000	0.10247000000000	-7.45731500000000	79.47331600000000	7.64152700000000	0.37506600000000	0.00000000000000	-0.06830500000000	0.00000000000000	24.18840900000000	0.00000000000000	0.00000000000000	4.88036200000000	0.00000000000000	
2.61165900000000	-39.57973700000000	788.57645100000002	56.06381000000000	0.13810200000000	0.00000000000000	0.10238900000000	-7.47206300000000	84.49881000000001	7.85224600000000	0.37832400000000	0.00000000000000	-0.06843000000000	0.00000000000000	24.09700800000000	0.00000000000000	0.00000000000000	5.07459800000000	0.00000000000000	
2.61332600000000	-40.09426800000000	786.46800900000005	55.90952500000000	0.13736800000000	0.00000000000000	0.10230200000000	-7.41017500000000	89.36184000000000	8.01096200000000	0.38143300000000	0.00000000000000	-0.06854500000000	0.00000000000000	24.00238100000000	0.00000000000000	0.00000000000000	5.24066000000000	0.00000000000000	
2.61499200000000	-40.61291400000000	784.22248600000000	55.73157100000000	0.13665400000000	0.00000000000000	0.10221200000000	-7.28021200000000	94.11079900000000	8.12462800000000	0.38440200000000	0.00000000000000	-0.06865100000000	0.00000000000000	23.90453700000000	0.00000000000000	0.00000000000000	5.38230100000000	0.00000000000000	
2.61666000000000	-41.13556200000000	781.83768999999995	55.52950800000000	0.13596000000000	0.00000000000000	0.10211700000000	-7.09100700000000	98.79759500000000	8.20044400000000	0.38723500000000	0.00000000000000	-0.06875100000000	0.00000000000000	23.80348400000000	0.00000000000000	0.00000000000000	5.50353000000000	0.00000000000000	
2.61832500000000	-41.66207100000000	779.31152899999995	55.30294000000000	0.13528500000000	0.00000000000000	0.10201800000000	-6.85097300000000	103.47330100000001	8.24526800000000	0.38993800000000	0.00000000000000	-0.06884500000000	0.00000000000000	23.69922200000000	0.00000000000000	0.00000000000000	5.60824100000000	0.00000000000000	
2.61999100000000	-42.19227700000000	776.64200800000003	55.05151100000000	0.13462800000000	0.00000000000000	0.10191400000000	-6.56757500000000	108.18459700000000	8.26516100000000	0.39251500000000	0.00000000000000	-0.06893500000000	0.00000000000000	23.59175100000000	0.00000000000000	0.00000000000000	5.69991600000000	0.00000000000000	
2.62166200000000	-42.72598900000000	773.82723999999996	54.77491300000000	0.13399000000000	0.00000000000000	0.10180600000000	-6.24695600000000	112.97115500000000	8.26506600000000	0.39497000000000	0.00000000000000	-0.06902300000000	0.00000000000000	23.48106500000000	0.00000000000000	0.00000000000000	5.78140300000000	0.00000000000000	
2.62332400000000	-43.26298800000000	770.86544500000002	54.47288300000000	0.13336800000000	0.00000000000000	0.10169300000000	-5.89374500000000	117.86399000000000	8.24862800000000	0.39730500000000	0.00000000000000	-0.06910800000000	0.00000000000000	23.36715500000000	0.00000000000000	0.00000000000000	5.85479100000000	0.00000000000000	
2.62499800000000	-43.80302300000000	767.75495000000001	54.14520500000000	0.13276400000000	0.00000000000000	0.10157600000000	-5.51100900000000	122.88473600000000	8.21814500000000	0.39952200000000	0.00000000000000	-0.06919200000000	0.00000000000000	23.25000600000000	0.00000000000000	0.00000000000000	5.92135200000000	0.00000000000000	
2.62665600000000	-44.34581200000000	764.49419499999999	53.79171600000000	0.13217500000000	0.00000000000000	0.10145500000000	-5.10033300000000	128.04573199999999	8.17462700000000	0.40162400000000	0.00000000000000	-0.06927700000000	0.00000000000000	23.12960200000000	0.00000000000000	0.00000000000000	5.98156300000000	0.00000000000000	
2.62832700000000	-44.89103800000000	761.08173599999998	53.41230100000000	0.13160000000000	0.00000000000000	0.10132900000000	-4.66200500000000	133.35075599999999	8.11794100000000	0.40361100000000	0.00000000000000	-0.06936200000000	0.00000000000000	23.00592200000000	0.00000000000000	0.00000000000000	6.03518300000000	0.00000000000000	
